<?xml version="1.0" standalone="no"?>
<!DOCTYPE svg PUBLIC "-//W3C//DTD SVG 20010904//EN"
 "http://www.w3.org/TR/2001/REC-SVG-20010904/DTD/svg10.dtd">
<svg version="1.0" xmlns="http://www.w3.org/2000/svg"
 width="512.000000pt" height="512.000000pt" viewBox="0 0 512.000000 512.000000"
 preserveAspectRatio="xMidYMid meet">
<metadata>
Created by potrace 1.11, written by Peter Selinger 2001-2013
</metadata>
<g transform="translate(0.000000,512.000000) scale(0.100000,-0.100000)"
fill="#000000" stroke="none">
<path d="M2490 4514 c-47 -7 -105 -16 -130 -19 -25 -4 -52 -8 -60 -10 -8 -3
-91 -16 -185 -30 -201 -30 -222 -33 -254 -40 -14 -2 -47 -7 -75 -10 -28 -3
-58 -8 -66 -10 -8 -2 -35 -7 -60 -10 -119 -17 -168 -42 -210 -110 -52 -84 -12
-216 80 -263 39 -20 55 -23 120 -18 41 3 84 7 95 9 11 2 42 8 68 11 27 4 56 9
65 11 10 1 40 6 67 9 28 4 57 9 65 11 8 2 33 6 55 9 51 7 114 17 140 22 11 2
40 7 65 10 25 3 52 7 60 9 8 2 38 7 65 11 28 3 59 8 70 10 71 14 115 16 115 5
0 -6 4 -11 9 -11 5 0 171 -106 367 -236 197 -130 375 -245 396 -254 63 -28
164 -6 209 46 69 79 65 211 -7 275 -19 17 -265 181 -454 304 -58 38 -106 72
-108 77 -2 4 -8 8 -13 8 -5 0 -69 40 -142 88 -180 121 -185 122 -347 96z"/>
<path d="M4435 4407 c-63 -17 -171 -70 -210 -103 -17 -14 -37 -31 -45 -38 -21
-15 -83 -103 -108 -151 -52 -103 -69 -251 -42 -366 57 -242 276 -418 525 -420
44 0 103 5 130 12 159 38 306 156 372 299 135 293 -8 636 -312 749 -74 28
-235 37 -310 18z"/>
<path d="M3355 4145 c17 -14 57 -42 90 -62 33 -20 62 -40 63 -45 2 -4 10 -8
17 -8 19 0 100 -81 121 -121 28 -52 26 -163 -5 -222 -13 -25 -33 -55 -45 -66
-62 -56 -170 -84 -243 -61 -52 17 -194 110 -186 123 3 6 1 7 -5 3 -6 -4 -108
57 -226 134 l-214 141 -89 -44 c-183 -92 -470 -301 -609 -442 -105 -108 -164
-239 -158 -355 4 -79 24 -144 71 -233 22 -40 289 -423 330 -472 5 -5 32 -42
60 -81 l52 -72 -47 -7 c-26 -3 -58 -8 -72 -10 -14 -2 -47 -6 -75 -9 -27 -4
-81 -11 -120 -16 -38 -5 -90 -12 -115 -15 -25 -3 -54 -7 -65 -9 -20 -4 -81
-12 -157 -21 -102 -12 -124 -15 -143 -19 -11 -2 -47 -7 -80 -10 -112 -14 -130
-17 -180 -40 -196 -88 -237 -350 -79 -498 59 -54 112 -73 204 -73 76 0 179 9
220 20 8 2 42 6 75 10 56 6 96 11 155 20 14 2 84 11 155 20 72 9 141 18 155
20 14 2 45 6 70 9 25 3 59 8 75 10 17 3 50 7 75 10 25 3 56 8 70 10 14 3 50 7
81 11 31 3 65 7 75 9 11 2 46 7 79 10 33 4 87 11 120 16 33 5 83 12 110 16
174 22 292 191 256 364 -14 66 -29 90 -286 443 -110 151 -207 285 -215 297 -8
12 -21 28 -27 36 -7 7 -13 17 -13 22 0 19 189 131 370 219 150 73 492 223 509
223 3 0 7 -64 9 -143 7 -387 11 -448 33 -491 11 -23 35 -51 52 -63 18 -12 196
-103 397 -203 201 -99 372 -184 380 -189 8 -4 24 -13 35 -19 11 -6 40 -20 65
-32 25 -11 52 -25 60 -30 57 -34 153 -72 196 -77 97 -11 181 51 203 148 16 73
-2 132 -56 182 -15 14 -237 130 -493 258 -256 127 -467 233 -469 235 -6 6 -9
59 -16 354 -14 581 -12 552 -35 609 -36 92 -102 166 -200 224 -89 53 -152 70
-280 74 l-115 4 30 -26z"/>
<path d="M913 3692 c-69 -3 -73 -4 -69 -25 l3 -22 499 0 499 0 3 23 c3 18 -1
22 -25 22 -255 3 -856 4 -910 2z"/>
<path d="M33 3542 c-16 -2 -23 -10 -23 -27 l0 -23 720 1 720 0 0 26 0 26 -698
0 c-383 0 -707 -1 -719 -3z"/>
<path d="M642 3390 c-13 -9 -12 -38 0 -42 7 -3 39 -4 71 -4 32 1 61 -2 63 -6
3 -5 10 -5 16 -1 15 9 779 10 784 1 3 -4 15 -3 28 2 13 5 27 6 30 3 3 -4 6 6
6 20 0 24 -4 27 -37 28 -142 4 -956 3 -961 -1z"/>
<path d="M1837 2853 c-8 -32 -29 -110 -47 -173 -17 -63 -33 -122 -35 -130 -2
-8 -22 -82 -44 -165 -23 -82 -41 -153 -41 -157 0 -4 8 -5 19 -3 37 7 87 14
146 20 33 3 85 10 115 15 30 5 80 12 110 15 30 4 92 12 137 18 l82 12 -27 38
c-15 20 -97 135 -183 255 -86 119 -167 238 -180 264 -13 26 -27 48 -30 48 -4
0 -13 -26 -22 -57z"/>
<path d="M814 1374 c-181 -135 -344 -259 -363 -276 -83 -75 -110 -227 -60
-333 64 -134 211 -202 352 -161 61 18 9 -19 1122 808 88 66 161 123 163 127 1
4 -35 2 -80 -5 -46 -7 -105 -15 -133 -18 -43 -5 -172 -21 -331 -42 -51 -7
-145 11 -197 37 -20 11 -58 40 -84 64 -26 25 -49 45 -53 45 -3 0 -154 -111
-336 -246z"/>
<path d="M3166 1320 c-1 -3 -1 -11 0 -17 1 -7 2 -18 3 -23 1 -7 166 -10 501
-9 l500 1 0 24 c0 13 -3 24 -7 25 -52 3 -996 3 -997 -1z"/>
<path d="M2352 1172 c-17 -3 -22 -9 -20 -25 l3 -22 716 -1 c393 0 722 -4 730
-9 11 -7 12 -6 3 6 -7 8 -13 22 -15 33 -4 18 -29 18 -699 20 -382 0 -705 0
-718 -2z"/>
<path d="M2959 1023 c-1 -2 -2 -13 -2 -25 l-1 -23 502 -1 503 0 -3 25 -3 25
-498 0 c-273 1 -498 0 -498 -1z"/>
</g>
</svg>
