<?xml version="1.0" standalone="no"?>
<!DOCTYPE svg PUBLIC "-//W3C//DTD SVG 20010904//EN"
 "http://www.w3.org/TR/2001/REC-SVG-20010904/DTD/svg10.dtd">
<svg version="1.0" xmlns="http://www.w3.org/2000/svg"
 width="1624.000000pt" height="1624.000000pt" viewBox="0 0 1624.000000 1624.000000"
 preserveAspectRatio="xMidYMid meet">
<metadata>
Created by potrace 1.11, written by Peter Selinger 2001-2013
</metadata>
<g transform="translate(0.000000,1624.000000) scale(0.100000,-0.100000)"
fill="#000000" stroke="none">
<path d="M4573 11978 c-36 -9 -71 -54 -123 -158 -32 -65 -107 -144 -404 -428
-47 -45 -86 -89 -86 -97 0 -8 -3 -15 -8 -15 -10 0 -31 -70 -22 -75 4 -3 18 4
30 15 13 11 20 20 17 20 -4 0 6 13 21 30 15 16 41 46 57 66 41 50 51 60 93 92
21 15 40 31 43 35 4 5 14 7 22 5 14 -3 13 -11 -8 -62 -13 -33 -28 -62 -32 -65
-21 -15 -64 -85 -115 -186 -30 -60 -81 -159 -113 -220 -32 -60 -114 -222 -184
-360 -69 -137 -129 -251 -133 -253 -5 -2 -8 -11 -8 -21 0 -9 -4 -21 -9 -27
-14 -13 -91 -169 -91 -183 0 -6 -4 -11 -10 -11 -5 0 -10 -5 -10 -11 0 -7 -20
-54 -45 -106 -25 -51 -45 -95 -45 -98 0 -2 -18 -41 -39 -85 -22 -44 -36 -80
-33 -80 4 0 2 -4 -4 -8 -6 -4 -18 -25 -26 -47 -9 -22 -37 -85 -63 -140 -26
-55 -62 -133 -81 -173 -19 -40 -34 -75 -34 -77 0 -3 -25 -57 -55 -120 -30 -64
-55 -118 -55 -120 0 -3 -11 -28 -24 -57 -13 -29 -36 -82 -51 -118 -63 -150
-107 -256 -109 -265 -2 -5 -8 -23 -15 -40 -7 -16 -34 -86 -61 -155 -27 -69
-54 -138 -61 -155 -7 -16 -14 -39 -16 -49 -2 -11 -8 -25 -13 -31 -5 -6 -17
-32 -25 -56 -8 -24 -22 -57 -29 -74 -15 -31 -27 -63 -31 -80 -2 -5 -17 -59
-35 -120 -17 -60 -33 -114 -34 -120 -1 -5 -9 -30 -16 -55 -7 -25 -14 -51 -16
-58 -1 -6 -14 -49 -27 -95 -22 -70 -38 -126 -54 -184 -7 -29 -10 -39 -16 -53
-5 -13 -27 -89 -33 -115 -4 -21 -56 -201 -61 -215 -6 -17 -9 -37 -16 -132 -3
-37 -7 -70 -10 -75 -3 -4 -8 -32 -12 -62 -4 -30 -9 -63 -11 -75 -17 -84 -23
-317 -11 -376 3 -14 6 -29 6 -34 1 -4 12 -6 26 -4 27 6 45 -10 26 -21 -24 -15
-33 -140 -12 -165 5 -6 26 -51 46 -101 43 -104 67 -140 142 -211 81 -76 147
-112 219 -120 l61 -6 23 36 c12 20 28 42 35 49 7 7 22 31 33 53 11 21 54 73
95 114 92 93 135 158 186 281 22 53 53 118 70 145 16 27 40 69 52 94 12 25 25
47 29 50 3 3 12 20 19 38 8 17 17 32 22 32 5 0 9 8 9 19 0 10 7 24 15 31 8 7
15 17 15 22 0 5 41 76 90 159 50 82 90 151 90 154 0 2 16 29 35 59 19 30 59
103 88 163 81 163 127 238 163 268 13 10 84 113 84 121 0 2 15 26 33 52 86
122 243 362 245 375 1 4 6 13 12 20 39 47 85 117 117 176 45 82 89 144 146
206 10 11 33 38 50 59 18 22 56 68 85 103 55 66 71 108 53 140 -10 19 -2 39
34 80 13 16 19 23 94 123 36 47 86 105 111 130 26 25 65 70 86 100 21 30 42
57 46 58 5 2 8 9 8 15 0 19 101 122 147 151 23 14 61 52 85 83 23 32 47 64 53
71 19 25 210 217 230 232 33 24 138 113 166 140 56 53 182 165 193 172 20 12
56 -20 56 -50 0 -31 -40 -132 -52 -132 -4 0 -8 -6 -8 -14 0 -7 -21 -55 -46
-107 -120 -244 -239 -498 -292 -621 -10 -24 -27 -63 -38 -88 -10 -24 -19 -47
-19 -50 -1 -3 -6 -15 -13 -27 -7 -13 -10 -23 -7 -23 3 0 -1 -10 -9 -22 -7 -13
-19 -41 -26 -63 -7 -22 -16 -44 -20 -50 -6 -8 -62 -148 -66 -165 -1 -7 -14
-40 -24 -65 -13 -32 -91 -239 -94 -250 -1 -5 -10 -27 -19 -49 -9 -21 -17 -40
-17 -42 0 -2 -15 -43 -34 -92 -63 -161 -144 -376 -186 -492 -64 -175 -91 -249
-96 -265 -2 -5 -22 -64 -44 -130 -23 -66 -43 -127 -45 -135 -2 -8 -26 -79 -54
-158 -45 -126 -75 -226 -87 -286 -8 -44 -54 -175 -115 -331 -16 -40 -16 -64
-2 -100 8 -21 8 -45 2 -80 -23 -124 -32 -175 -34 -215 -2 -19 -4 -35 -5 -35
-2 0 -9 -95 -13 -201 -3 -51 -8 -97 -11 -103 -4 -6 -4 -11 1 -11 7 0 8 -25 3
-110 -2 -34 9 -189 15 -220 55 -258 110 -427 156 -484 5 -6 40 -51 77 -101 38
-49 103 -122 144 -161 76 -72 105 -86 204 -99 22 -3 55 -10 73 -15 32 -9 32
-9 27 24 -6 34 -1 39 77 97 15 11 27 25 27 31 0 18 -68 76 -98 83 -62 13 -75
59 -41 143 10 24 11 37 3 50 -6 9 -17 27 -24 38 -11 18 -11 27 4 59 38 79 40
171 10 387 -7 46 -6 47 29 64 28 13 34 21 27 33 -8 16 -5 133 5 181 3 14 8 41
11 60 3 19 8 44 11 55 8 24 11 40 17 80 3 17 7 37 10 45 3 8 8 26 10 40 9 45
33 124 60 195 15 39 28 75 30 80 2 6 8 23 14 38 7 16 12 30 12 32 0 2 5 16 12
32 6 15 12 33 14 38 2 6 10 30 19 55 20 55 23 67 36 150 5 35 16 73 24 85 8
11 21 29 29 40 8 11 17 32 20 48 3 15 25 48 50 72 25 25 68 85 97 133 29 48
67 110 85 139 19 28 34 54 34 57 0 3 17 32 37 63 21 32 43 67 49 78 6 11 37
61 68 110 31 50 61 102 67 118 6 15 15 27 20 27 5 0 9 7 9 15 0 8 5 15 10 15
6 0 10 4 10 9 0 5 33 65 74 133 40 68 98 166 129 218 30 52 64 104 74 115 10
11 25 34 33 50 8 17 17 32 20 35 12 12 80 129 80 138 0 6 6 17 13 24 27 28
114 205 116 237 1 29 27 73 76 127 5 7 19 24 30 40 23 32 64 83 83 102 36 39
34 49 -18 68 -28 10 -50 21 -50 24 0 6 50 82 59 90 3 3 33 46 66 95 61 92 64
97 102 156 12 19 26 39 31 45 5 5 31 51 59 100 27 50 90 144 139 210 50 65
149 207 220 314 71 107 135 201 142 209 8 8 25 33 39 55 38 60 147 210 156
214 4 2 7 9 7 15 0 7 23 37 50 67 62 69 57 63 110 135 25 33 55 71 68 85 12
14 22 28 22 32 0 3 6 13 13 20 7 7 26 31 42 53 17 22 35 45 40 51 6 6 24 28
40 48 17 21 43 52 58 69 15 18 49 59 75 92 26 33 54 67 63 76 9 9 36 43 60 75
24 33 46 61 49 64 6 6 30 48 30 54 0 2 -9 6 -19 9 -20 5 -81 -20 -81 -34 0 -4
-16 -24 -35 -45 -19 -20 -52 -59 -72 -85 -20 -27 -41 -49 -45 -49 -4 0 -8 -6
-8 -14 0 -8 -4 -16 -8 -18 -5 -1 -46 -48 -92 -103 -46 -55 -92 -109 -102 -119
-10 -11 -18 -22 -18 -25 0 -3 -24 -21 -53 -40 -37 -24 -68 -57 -107 -114 -30
-44 -59 -85 -65 -91 -5 -6 -50 -65 -99 -131 -49 -66 -126 -165 -170 -220 -44
-55 -84 -104 -88 -110 -4 -5 -18 -23 -31 -40 -45 -56 -97 -135 -97 -145 0 -5
-4 -10 -10 -10 -5 0 -10 -6 -10 -13 0 -7 -21 -31 -46 -53 -26 -21 -58 -57 -72
-78 -13 -22 -28 -44 -33 -50 -27 -32 -139 -186 -139 -191 0 -2 -9 -15 -19 -27
-11 -13 -29 -34 -40 -47 -24 -27 -26 -21 -10 29 18 61 20 74 20 107 0 20 8 42
22 57 12 14 31 36 42 50 11 14 28 36 38 48 11 14 14 24 7 26 -6 2 -21 -9 -33
-24 -12 -15 -34 -40 -48 -55 -15 -15 -24 -30 -21 -33 3 -3 -2 -6 -10 -6 -17 0
-40 23 -36 36 1 5 -4 46 -11 92 -8 46 -15 98 -16 115 -3 49 -18 78 -79 148
-31 35 -56 70 -56 76 0 7 -3 13 -8 13 -4 0 -13 14 -21 30 -7 17 -31 48 -53 68
-22 20 -54 51 -72 68 -59 56 -81 66 -148 65 -65 -1 -78 7 -78 45 0 14 -7 20
-22 21 -13 0 -63 10 -113 22 -124 30 -141 26 -235 -64 -80 -76 -110 -92 -159
-82 -20 4 -33 1 -42 -9 -14 -17 -14 -16 29 -38 52 -27 38 -36 -53 -36 -50 0
-85 -4 -85 -10 0 -5 9 -10 19 -10 31 0 34 -17 11 -54 l-21 -35 28 -13 c39 -18
26 -33 -28 -33 -42 0 -52 -5 -101 -51 -29 -28 -64 -56 -77 -63 -41 -22 -60
-41 -434 -416 -348 -349 -368 -371 -365 -402 3 -28 2 -30 -15 -22 -24 13 -54
-9 -103 -77 -10 -14 -28 -37 -39 -50 -11 -13 -38 -48 -59 -77 -22 -28 -72 -80
-112 -114 -47 -41 -76 -75 -84 -97 -13 -41 -49 -55 -83 -31 -27 19 -56 19 -63
0 -4 -8 -11 -15 -18 -15 -6 0 -19 -12 -28 -28 -31 -50 -80 -117 -89 -120 -5
-2 -9 -10 -9 -18 0 -8 -4 -14 -10 -14 -5 0 -10 -7 -10 -15 0 -8 -4 -15 -8 -15
-4 0 -15 -12 -24 -27 -9 -16 -33 -46 -52 -68 -20 -22 -36 -45 -36 -51 0 -6 -7
-17 -15 -24 -8 -7 -15 -19 -15 -27 0 -36 -82 -153 -107 -153 -9 0 -79 -99 -77
-109 2 -10 -129 -266 -138 -269 -4 -2 -8 -10 -8 -17 0 -7 -3 -15 -7 -17 -5 -1
-24 -28 -44 -58 -38 -57 -63 -90 -89 -119 -27 -30 -110 -159 -131 -203 -11
-24 -29 -59 -41 -78 -12 -19 -37 -64 -56 -100 -19 -36 -39 -69 -45 -75 -7 -7
-8 -6 -3 2 3 6 2 14 -3 18 -12 7 -7 34 12 72 8 15 23 54 32 85 11 38 31 73 59
105 33 38 48 67 69 139 15 50 27 99 27 110 0 26 34 80 77 122 30 29 34 38 29
65 -4 17 -13 35 -21 40 -8 4 -19 17 -25 28 -9 16 -6 22 27 42 21 12 40 21 43
20 6 -3 30 62 36 98 4 21 -3 32 -36 59 l-41 34 53 30 c48 28 53 34 53 66 0 35
0 35 43 34 23 0 42 3 42 8 0 5 12 26 26 48 14 21 28 57 30 80 3 37 32 78 55
80 3 0 12 18 19 41 10 30 11 50 3 80 -10 37 -9 39 11 35 35 -6 53 16 76 94 27
89 43 123 83 172 28 34 29 40 18 65 -12 26 -10 30 22 58 20 17 40 47 47 70 21
66 47 111 83 142 23 19 55 70 98 158 35 72 73 146 84 165 12 19 48 93 80 163
32 71 66 139 76 150 9 12 17 26 17 30 0 5 33 52 72 105 40 53 94 142 120 197
34 71 60 112 90 139 35 31 45 48 56 99 28 119 44 155 84 187 21 16 42 30 46
30 5 0 36 43 69 96 33 53 77 123 99 157 21 34 44 65 50 69 6 4 7 8 3 8 -4 0
-3 6 3 13 78 92 215 284 241 335 29 59 33 76 31 142 0 47 -7 90 -18 115 -10
22 -18 42 -19 45 0 3 -11 24 -23 48 -13 24 -35 81 -51 128 -27 84 -28 85 -160
220 -73 74 -143 139 -156 144 -15 6 -35 5 -55 -1 -18 -7 -42 -8 -58 -3 -15 4
-32 8 -37 9 -6 0 -31 6 -55 14 -25 7 -56 17 -70 21 -14 3 -39 3 -57 -2z
m-1781 -4245 c5 -79 -20 -146 -64 -169 -15 -8 -28 -11 -29 -7 0 5 -2 17 -4 27
-4 21 72 176 86 176 5 0 10 -12 11 -27z m298 -179 c0 -4 -16 -40 -35 -82 -37
-79 -52 -84 -58 -22 -5 44 7 72 41 93 27 17 52 22 52 11z m-437 -345 c4 -14
-5 -33 -27 -57 -53 -60 -60 -79 -61 -187 -1 -87 -5 -109 -29 -168 -16 -37 -33
-67 -37 -67 -4 0 -11 -9 -14 -20 -3 -11 -10 -20 -16 -20 -9 0 -26 77 -20 95 2
6 4 15 5 20 2 6 10 35 19 65 9 30 18 82 20 115 3 62 21 100 65 143 13 13 25
37 26 55 2 18 8 43 15 56 12 21 14 22 31 6 10 -9 20 -25 23 -36z m195 -349
l-32 -57 -14 26 c-14 27 -9 48 25 99 14 23 16 23 33 7 19 -17 19 -19 -12 -75z
m-366 -292 c-33 -103 -54 -181 -57 -213 -2 -16 -13 -37 -25 -47 -23 -19 -42
-16 -35 5 2 7 6 50 9 97 4 47 8 97 11 113 3 15 7 39 10 54 6 35 15 43 56 50
19 3 36 7 38 9 13 13 11 -12 -7 -68z"/>
<path d="M9153 11974 c-21 -9 -43 -34 -69 -76 -21 -35 -39 -68 -40 -75 -6 -39
-145 -185 -427 -450 -58 -54 -110 -148 -92 -163 10 -8 16 -7 22 3 35 60 197
228 242 251 l30 16 -16 -53 c-12 -42 -65 -131 -93 -157 -5 -5 -106 -202 -259
-505 -42 -82 -80 -153 -86 -157 -5 -4 -6 -8 -1 -8 5 0 4 -6 -2 -12 -10 -14
-292 -565 -292 -573 0 -6 -96 -213 -114 -245 -8 -14 -14 -28 -15 -33 0 -4 -8
-21 -16 -37 -9 -17 -12 -30 -8 -30 5 0 3 -4 -2 -8 -6 -4 -26 -41 -44 -82 -19
-41 -54 -118 -78 -170 -25 -52 -50 -108 -58 -125 -7 -16 -32 -70 -55 -120 -23
-49 -51 -112 -62 -140 -12 -27 -25 -54 -30 -59 -4 -6 -8 -18 -8 -28 0 -10 -5
-18 -12 -18 -6 0 -8 -3 -5 -6 3 -4 1 -16 -5 -28 -7 -11 -13 -23 -13 -26 -2 -8
-25 -61 -40 -95 -23 -48 -100 -249 -105 -270 -1 -5 -8 -21 -15 -35 -7 -14 -19
-41 -25 -60 -7 -19 -18 -48 -25 -65 -7 -16 -25 -61 -39 -100 -15 -38 -33 -83
-41 -100 -42 -97 -88 -224 -101 -280 -1 -5 -10 -37 -20 -70 -10 -33 -19 -64
-20 -70 -2 -11 -36 -127 -60 -207 -29 -99 -45 -154 -49 -171 -2 -10 -15 -55
-28 -100 -44 -146 -48 -161 -73 -252 -14 -49 -28 -117 -30 -150 -4 -58 -8 -83
-18 -135 -36 -184 -48 -353 -33 -475 7 -56 9 -61 34 -63 34 -3 41 -11 23 -22
-8 -6 -12 -10 -9 -10 4 0 1 -17 -6 -37 -15 -45 -10 -83 19 -143 13 -25 33 -72
46 -105 13 -33 33 -73 44 -89 24 -34 137 -146 148 -146 3 0 13 -6 20 -12 33
-31 80 -48 139 -51 l62 -2 51 79 c28 43 87 118 131 165 44 48 88 97 97 109 25
31 78 138 78 157 0 8 5 15 12 15 6 0 8 3 5 6 -4 4 1 21 10 38 9 17 21 40 26
51 6 11 17 34 26 50 8 17 17 32 20 35 3 3 13 19 22 35 9 17 30 55 47 85 16 30
47 87 67 125 21 39 50 88 65 110 15 22 30 47 33 55 4 8 18 33 32 55 13 22 29
49 34 60 5 11 31 56 58 100 27 44 73 130 103 190 58 119 92 176 129 215 13 14
44 57 69 95 25 39 49 72 54 73 4 2 8 8 8 13 0 11 142 223 153 227 4 2 7 8 7
14 0 6 16 33 35 59 19 27 35 51 35 54 0 3 29 48 64 99 36 52 76 116 89 142 36
70 105 161 202 268 6 6 23 29 39 51 16 22 34 45 41 50 7 6 24 27 38 48 22 33
24 42 15 69 -9 25 -7 36 7 62 19 31 80 112 99 131 6 6 26 31 44 57 18 26 58
73 90 105 31 32 64 69 72 82 65 102 146 193 210 237 50 33 70 50 70 58 0 32
220 267 335 358 39 30 84 68 101 84 17 16 66 60 108 98 136 122 125 116 150
90 15 -15 21 -37 16 -59 -1 -5 -4 -18 -6 -29 -2 -10 -10 -29 -19 -42 -8 -13
-15 -30 -15 -39 0 -8 -4 -15 -10 -15 -5 0 -10 -4 -10 -10 0 -5 -35 -80 -77
-167 -42 -87 -78 -160 -78 -163 -1 -3 -21 -45 -44 -95 -92 -191 -201 -436
-201 -450 0 -3 -9 -24 -19 -48 -29 -64 -85 -207 -90 -229 -1 -4 -9 -25 -18
-45 -31 -75 -36 -88 -39 -98 -7 -28 -50 -141 -54 -145 -3 -3 -11 -21 -17 -40
-6 -19 -20 -57 -31 -85 -11 -27 -38 -99 -61 -160 -22 -60 -45 -119 -50 -130
-5 -11 -30 -76 -56 -145 -25 -69 -53 -141 -60 -160 -32 -80 -169 -472 -179
-515 -2 -5 -6 -17 -9 -25 -29 -68 -148 -440 -140 -440 2 0 -1 -8 -6 -17 -5
-10 -11 -31 -14 -48 -3 -16 -24 -79 -47 -140 -67 -178 -79 -213 -74 -218 17
-17 21 -99 9 -162 -4 -22 -9 -49 -11 -60 -1 -11 -3 -20 -4 -20 -2 0 -3 -10
-14 -105 -15 -128 -18 -176 -20 -379 -2 -117 1 -234 6 -260 5 -25 11 -59 14
-75 3 -16 7 -32 9 -36 2 -3 6 -17 9 -31 27 -123 39 -165 65 -237 25 -68 96
-192 121 -212 3 -3 17 -21 30 -40 38 -55 182 -198 215 -214 26 -12 68 -22 182
-41 13 -2 27 -6 33 -10 6 -4 10 9 10 33 0 31 6 43 26 58 62 45 74 56 74 68 0
20 -52 63 -98 81 -23 10 -47 26 -52 36 -12 21 -13 63 -2 73 4 4 12 22 18 39
10 28 8 36 -13 63 l-24 32 26 78 c23 65 26 89 21 153 -8 119 -14 177 -21 211
-6 26 -3 35 17 48 12 9 26 16 31 14 4 -1 6 29 3 68 -2 38 0 72 5 75 4 3 6 11
3 18 -2 7 7 68 22 137 14 69 27 135 29 147 4 31 52 191 74 249 10 27 28 76 41
109 12 33 28 74 35 90 21 49 44 127 50 170 16 107 22 122 56 160 10 12 20 30
22 42 1 11 18 34 37 49 41 34 64 61 102 118 15 23 32 46 38 53 5 7 10 14 10
17 0 3 26 48 58 101 31 53 64 108 72 123 16 27 28 44 46 65 6 7 11 16 11 21 0
4 5 15 11 25 22 31 69 106 113 181 24 41 47 77 51 78 5 2 8 7 8 12 0 4 29 55
64 112 35 58 76 129 91 159 15 29 35 64 45 79 67 96 150 227 172 270 7 14 15
27 19 30 5 5 49 83 106 189 12 24 27 49 33 56 5 6 11 33 14 59 2 27 8 52 13
55 5 3 22 24 39 46 58 79 154 197 166 206 11 7 -8 22 -49 39 -18 7 -33 16 -33
21 0 5 22 39 48 76 26 38 75 109 107 158 33 50 63 92 67 93 5 2 8 8 8 12 0 5
13 28 28 52 16 24 42 68 58 98 25 48 89 146 104 160 18 17 156 211 210 295 36
55 73 109 82 119 10 11 18 26 18 33 0 7 4 13 8 13 4 0 16 15 27 33 10 17 40
61 65 97 25 36 80 112 120 170 41 58 78 107 82 108 5 2 8 10 8 17 0 8 10 22
23 32 24 20 93 105 207 258 84 112 85 113 167 210 193 229 303 373 297 390 -8
20 -94 -1 -94 -23 0 -4 -15 -23 -33 -43 -17 -20 -48 -56 -67 -80 -19 -23 -41
-48 -47 -55 -7 -7 -13 -15 -13 -18 0 -3 -10 -15 -22 -28 -13 -13 -41 -45 -63
-73 -22 -27 -51 -61 -65 -77 -14 -15 -38 -44 -54 -64 -17 -20 -51 -50 -77 -68
-26 -18 -65 -57 -85 -86 -44 -66 -302 -409 -321 -428 -7 -7 -34 -41 -59 -75
-26 -34 -52 -66 -58 -72 -7 -5 -27 -32 -46 -60 -19 -27 -37 -52 -40 -55 -7 -7
-29 -42 -37 -60 -10 -21 -22 -35 -67 -78 -21 -20 -43 -41 -48 -47 -10 -12
-152 -210 -194 -270 -44 -64 -143 -170 -151 -162 -3 4 -1 7 5 7 6 0 14 15 17
33 4 17 12 38 17 45 6 6 8 12 5 12 -3 0 -1 15 4 33 20 65 20 88 1 130 -11 23
-23 65 -27 92 -4 28 -10 64 -12 80 -2 17 -5 46 -7 65 -1 19 -4 40 -7 45 -4 6
-9 22 -12 36 -4 14 -26 47 -49 72 -48 52 -63 71 -81 107 -22 46 -83 113 -172
189 -46 40 -53 42 -105 40 -68 -2 -90 7 -90 36 0 21 -9 25 -112 48 -62 14
-124 24 -138 23 -14 -2 -30 -4 -37 -5 -7 0 -43 -32 -81 -70 -82 -82 -95 -89
-147 -87 -22 1 -48 -4 -58 -10 -17 -11 -16 -14 22 -36 22 -12 41 -26 41 -30 0
-5 -38 -8 -85 -8 -50 0 -85 -4 -85 -10 0 -5 8 -10 18 -10 30 0 33 -11 11 -46
-20 -32 -19 -54 2 -54 6 0 17 -6 25 -14 12 -13 12 -15 -3 -20 -10 -2 -36 -3
-57 -1 -34 2 -44 -2 -75 -35 -20 -20 -65 -57 -101 -81 -57 -38 -173 -149 -376
-360 -34 -35 -133 -134 -221 -219 -184 -180 -206 -207 -198 -247 4 -17 3 -23
-2 -16 -13 19 -67 -4 -86 -36 -8 -15 -26 -38 -39 -52 -13 -14 -34 -42 -48 -62
-14 -20 -28 -37 -32 -37 -5 0 -8 -6 -8 -12 -1 -15 -74 -87 -136 -135 -22 -18
-49 -50 -59 -72 -22 -50 -46 -59 -91 -35 -42 23 -53 17 -112 -57 -138 -175
-262 -354 -268 -385 -5 -25 -28 -57 -80 -112 -41 -42 -84 -97 -95 -122 -12
-25 -28 -61 -37 -80 -14 -32 -29 -59 -102 -185 -40 -70 -115 -178 -148 -213
-17 -18 -30 -34 -29 -35 0 -1 -17 -29 -40 -62 -22 -33 -57 -91 -77 -130 -36
-70 -57 -106 -66 -115 -3 -3 -18 -31 -35 -63 -26 -50 -31 -56 -42 -41 -10 13
-9 24 6 53 10 20 24 54 31 76 20 67 40 104 73 138 33 32 74 135 83 206 6 49
37 112 68 141 58 54 62 84 15 131 -28 28 -24 41 24 70 35 21 46 36 60 75 l16
49 -41 38 -41 37 23 20 c12 11 27 17 31 14 5 -3 9 -1 9 5 0 5 8 12 19 16 13 4
18 15 17 43 -1 36 -1 37 39 37 35 0 42 5 67 42 16 23 32 63 37 89 6 30 18 54
35 69 14 12 32 38 41 57 14 34 14 46 -1 95 -5 17 -2 21 13 19 35 -6 52 14 74
87 25 85 42 119 80 169 30 38 35 63 20 87 -7 11 3 25 35 54 24 22 44 47 44 57
0 46 72 160 100 160 4 0 42 71 85 158 43 86 82 159 87 160 4 2 8 12 8 23 0 10
5 19 10 19 6 0 10 5 10 11 0 5 10 31 21 57 67 147 107 217 204 347 53 71 83
123 130 227 16 34 43 72 68 93 22 19 42 41 43 48 4 26 35 144 46 172 11 31 63
85 81 85 14 0 46 38 68 83 11 20 24 37 29 37 6 0 10 4 10 10 0 5 16 36 36 67
43 68 89 140 107 167 19 29 119 159 140 181 28 30 94 145 110 190 13 37 15
135 4 180 -3 11 -23 58 -45 105 -21 47 -49 117 -62 156 -21 69 -28 77 -154
207 -73 74 -142 140 -155 146 -16 9 -30 9 -56 1 -25 -8 -45 -8 -77 0 -24 7
-50 13 -58 15 -8 2 -35 9 -60 16 -63 17 -62 17 -97 3z m2153 -3023 c-35 -55
-42 -52 -9 4 15 24 29 42 31 40 2 -1 -8 -22 -22 -44z m-3913 -1270 c-11 -65
-71 -147 -91 -126 -11 11 -6 79 6 83 7 2 12 12 12 23 0 10 5 19 10 19 6 0 9 3
8 8 -1 4 6 23 17 42 l18 35 13 -30 c6 -16 10 -40 7 -54z m271 -178 c-14 -32
-31 -71 -36 -87 l-11 -29 -13 24 c-28 51 -14 108 34 133 49 27 53 20 26 -41z
m-436 -262 c27 -22 28 -65 4 -83 -28 -20 -63 -72 -65 -96 -1 -12 -4 -22 -7
-22 -3 0 -4 -33 -2 -72 2 -40 3 -81 3 -91 0 -23 -66 -160 -85 -176 -11 -10
-15 -9 -20 6 -14 48 -13 77 8 145 12 40 24 97 25 127 3 69 10 86 59 145 32 38
39 53 32 67 -7 12 -5 21 5 29 8 7 15 19 15 26 0 18 3 18 28 -5z m242 -332 c0
-9 -6 -22 -14 -28 -8 -6 -19 -25 -26 -41 -15 -36 -24 -38 -37 -8 -8 18 -4 33
15 70 21 42 26 45 43 35 10 -7 19 -19 19 -28z m-391 -349 c-11 -36 -22 -74
-24 -84 -3 -10 -9 -33 -14 -50 -6 -17 -13 -47 -16 -66 -11 -64 -67 -95 -59
-33 2 16 7 57 10 93 9 101 10 113 18 152 5 21 14 42 22 49 8 6 14 9 14 6 0 -3
12 -2 28 3 15 4 30 4 34 1 4 -3 -2 -36 -13 -71z"/>
<path d="M13775 11978 c-35 -19 -54 -45 -96 -130 -37 -75 -58 -99 -209 -248
-91 -91 -190 -187 -219 -214 -72 -67 -133 -176 -100 -176 13 0 16 3 106 111
62 74 156 159 177 159 22 0 -32 -127 -70 -165 -13 -13 -24 -29 -24 -35 0 -5
-4 -10 -10 -10 -5 0 -10 -5 -10 -11 0 -12 -38 -88 -125 -254 -114 -217 -525
-1029 -525 -1039 0 -2 -20 -46 -44 -98 -24 -51 -53 -115 -66 -143 -59 -131
-85 -186 -117 -255 -19 -41 -48 -102 -63 -135 -15 -33 -40 -87 -55 -120 -62
-134 -129 -286 -170 -385 -24 -58 -52 -123 -61 -145 -10 -22 -18 -42 -19 -45
0 -6 -43 -117 -56 -145 -4 -11 -33 -85 -64 -165 -30 -80 -61 -156 -67 -170 -6
-14 -13 -31 -14 -39 -1 -7 -7 -18 -13 -24 -6 -6 -11 -18 -11 -27 0 -8 -6 -27
-14 -42 -11 -21 -37 -88 -41 -108 -5 -21 -29 -104 -41 -145 -9 -27 -17 -57
-19 -65 -2 -8 -15 -55 -30 -105 -15 -49 -35 -119 -45 -155 -10 -36 -30 -105
-45 -155 -15 -49 -31 -108 -36 -130 -5 -22 -12 -47 -16 -55 -3 -8 -7 -19 -9
-25 -9 -29 -37 -132 -39 -145 -2 -8 -4 -15 -5 -15 -4 0 -10 -48 -15 -113 -2
-40 -7 -77 -10 -81 -3 -5 -7 -29 -10 -52 -3 -24 -10 -73 -16 -109 -11 -67 -22
-168 -21 -185 1 -5 3 -54 5 -109 4 -104 10 -116 53 -111 25 2 30 -5 14 -21
-17 -17 -37 -99 -29 -119 19 -50 22 -60 21 -67 -1 -5 3 -8 8 -8 5 0 9 -3 8 -7
-1 -9 8 -32 49 -123 33 -73 115 -162 204 -223 42 -29 71 -40 120 -47 64 -9 64
-9 89 22 14 17 42 58 63 91 20 34 70 95 111 137 89 91 132 156 181 275 31 76
56 125 115 225 5 8 34 61 65 117 51 95 150 266 265 458 26 44 75 135 108 202
65 131 87 168 137 223 17 19 47 60 65 90 19 30 37 57 40 60 6 6 181 271 250
380 6 8 35 51 65 95 30 44 64 101 76 128 12 26 25 47 30 47 5 0 9 5 9 10 0 14
67 103 119 159 22 24 47 53 54 65 8 12 42 54 75 94 62 73 65 83 46 143 -4 13
52 96 118 173 5 6 26 35 47 64 22 29 55 67 75 84 20 17 67 74 105 127 84 117
111 146 179 195 29 21 81 75 115 120 62 83 204 230 267 278 61 46 161 134 264
230 81 77 100 87 126 63 27 -25 19 -67 -34 -174 -25 -51 -46 -99 -46 -107 0
-8 -4 -14 -9 -14 -5 0 -12 -12 -16 -27 -3 -16 -12 -35 -19 -43 -7 -8 -22 -36
-32 -62 -10 -27 -22 -48 -26 -48 -5 0 -8 -6 -8 -13 0 -7 -25 -64 -55 -126 -49
-99 -84 -175 -90 -191 -2 -7 -19 -45 -45 -105 -27 -62 -43 -98 -45 -105 -1 -3
-6 -16 -12 -30 -28 -66 -88 -215 -125 -310 -22 -58 -45 -116 -51 -130 -5 -14
-11 -31 -13 -39 -1 -7 -12 -35 -23 -62 -12 -26 -21 -52 -21 -58 0 -6 -11 -35
-25 -65 -14 -30 -25 -58 -25 -61 0 -4 -20 -57 -44 -118 -92 -235 -207 -539
-241 -642 -9 -27 -22 -56 -28 -64 -7 -8 -11 -16 -9 -18 4 -5 -10 -57 -19 -68
-4 -5 -7 -13 -7 -18 0 -8 -58 -189 -69 -217 -4 -8 -7 -18 -8 -22 -2 -5 -4 -10
-5 -13 -3 -5 -3 -6 -15 -50 -4 -16 -11 -34 -15 -40 -6 -8 -16 -38 -25 -75 0
-3 -11 -32 -24 -65 -12 -33 -31 -96 -41 -140 -16 -72 -48 -178 -70 -230 -60
-144 -76 -213 -59 -247 11 -21 13 -55 5 -88 -16 -64 -36 -195 -32 -207 3 -7 2
-13 -2 -13 -4 0 -8 -12 -8 -27 -1 -16 -4 -89 -9 -163 -9 -169 -10 -348 -2
-420 8 -61 39 -199 69 -305 11 -38 21 -74 22 -80 2 -5 10 -27 19 -49 9 -21 17
-40 17 -43 0 -6 99 -152 124 -181 100 -122 219 -226 261 -231 6 -1 24 -3 40
-6 17 -3 44 -7 60 -10 17 -2 42 -7 56 -10 23 -5 25 -3 23 24 -2 30 0 33 74
101 l34 30 -29 30 c-26 26 -99 66 -115 62 -3 -1 -11 12 -17 29 -8 24 -6 40 10
81 l20 50 -25 43 c-22 36 -23 44 -12 61 8 10 14 22 15 26 1 4 3 13 6 20 11 36
22 109 19 134 -1 16 -5 54 -8 84 -8 85 -17 154 -21 167 -2 6 12 21 31 32 29
18 34 25 28 44 -7 22 -7 68 0 117 11 78 18 119 27 152 5 20 12 56 15 79 7 47
65 257 85 304 7 17 13 32 13 35 1 3 18 48 38 100 51 132 75 208 82 258 10 75
27 124 48 142 12 9 22 30 24 46 3 30 18 88 37 139 7 17 12 35 13 40 6 30 81
199 147 327 52 103 73 155 71 175 -3 22 5 35 36 64 28 25 50 61 76 122 22 54
44 92 58 99 35 19 37 31 21 141 -7 47 -7 47 25 53 34 7 44 23 62 108 6 27 23
71 39 98 16 27 29 51 29 54 0 3 37 67 82 142 88 147 101 168 171 278 26 40 54
88 64 108 9 20 20 36 24 36 4 0 10 11 13 24 3 14 12 31 19 38 6 7 21 29 31 48
11 19 22 37 26 40 11 8 140 229 140 239 0 5 4 11 9 13 5 2 17 17 27 34 11 18
34 58 53 90 19 33 37 61 40 64 16 14 69 121 75 150 2 14 8 36 13 50 12 30 10
76 -4 110 -6 14 -9 28 -6 33 2 4 0 7 -5 7 -20 0 -34 68 -57 263 -5 45 -35 97
-85 148 -19 20 -46 58 -60 84 -38 72 -194 224 -234 227 -11 1 -41 1 -65 0 -43
-2 -76 12 -66 28 12 19 -29 39 -119 60 -55 12 -107 23 -115 25 -34 5 -74 -20
-143 -87 -80 -78 -98 -87 -146 -82 -18 3 -42 -2 -52 -9 -19 -13 -18 -15 17
-33 20 -10 35 -23 34 -29 0 -6 -36 -10 -81 -10 -49 0 -79 -4 -77 -10 2 -5 13
-11 25 -13 27 -4 28 -16 2 -52 -21 -29 -17 -39 24 -54 13 -4 16 -10 9 -17 -11
-11 -36 -13 -68 -6 -13 3 -37 -11 -70 -41 -27 -24 -77 -63 -110 -85 -54 -36
-175 -152 -336 -323 -31 -32 -72 -74 -93 -91 -20 -18 -35 -33 -32 -33 2 0 -28
-30 -67 -67 -238 -228 -269 -266 -254 -306 3 -8 -4 -12 -22 -11 -28 1 -62 -28
-116 -101 -16 -22 -33 -44 -37 -50 -5 -5 -26 -32 -47 -60 -22 -27 -61 -68 -87
-90 -58 -48 -114 -105 -112 -114 4 -37 -35 -57 -69 -35 -48 30 -86 11 -143
-71 -14 -19 -32 -44 -40 -54 -8 -11 -33 -45 -55 -76 -22 -31 -57 -78 -78 -103
-21 -26 -56 -83 -77 -127 -27 -58 -53 -95 -95 -135 -39 -38 -69 -79 -96 -132
-21 -43 -36 -78 -34 -78 3 0 -57 -105 -72 -125 -4 -6 -9 -17 -11 -25 -2 -8
-10 -22 -18 -31 -8 -8 -14 -21 -14 -27 0 -7 -4 -12 -8 -12 -5 0 -17 -16 -28
-35 -10 -19 -22 -35 -26 -35 -5 0 -8 -5 -8 -11 0 -6 -12 -26 -27 -44 -16 -18
-35 -41 -43 -51 -30 -38 -107 -160 -126 -199 -10 -22 -30 -58 -44 -80 -14 -22
-39 -65 -54 -95 -38 -72 -42 -76 -50 -46 -4 18 2 42 19 76 14 27 25 58 25 68
0 10 3 22 8 26 4 4 7 11 8 14 3 22 22 52 56 84 35 35 43 49 39 72 -1 4 2 13 7
20 6 6 19 51 31 99 22 89 54 153 81 162 13 4 40 48 40 66 0 3 -13 23 -29 43
-17 21 -28 43 -25 50 5 13 58 47 71 46 5 0 17 26 27 57 l19 57 -37 30 c-20 17
-36 36 -36 42 0 6 23 23 50 38 38 20 48 31 41 40 -6 7 -7 22 -4 35 5 20 11 22
38 18 26 -4 38 0 54 17 12 12 21 26 21 31 0 5 6 16 14 24 8 9 17 36 20 61 4
33 15 53 41 78 39 38 54 91 37 134 -11 29 -7 32 29 29 24 -2 34 16 63 110 22
73 70 161 98 180 4 3 4 19 -2 35 -10 28 -7 33 35 77 25 26 44 51 43 55 -8 36
63 152 93 152 5 0 36 55 69 123 33 67 63 127 67 132 11 14 94 183 93 190 -1
11 75 154 116 217 24 37 66 96 94 132 27 35 50 67 50 72 0 4 6 15 13 23 7 9
24 44 38 79 13 34 27 62 32 62 4 0 6 4 3 9 -4 5 16 29 42 53 44 39 50 51 67
118 31 130 46 156 111 194 16 10 43 39 59 65 16 25 34 49 40 53 6 5 6 8 0 8
-6 0 -6 3 1 8 5 4 37 50 69 102 33 52 62 97 66 100 3 3 8 12 11 20 4 8 42 60
85 116 103 130 135 178 161 241 26 62 29 158 6 218 -8 22 -16 45 -18 50 -1 6
-14 33 -28 60 -23 46 -67 164 -72 192 -1 7 -66 78 -145 158 -146 148 -164 160
-210 135 -12 -6 -31 -6 -56 1 -21 6 -45 12 -54 14 -9 2 -43 11 -76 19 -69 19
-74 19 -100 4z m-1766 -4225 c-1 -5 0 -10 1 -13 8 -23 8 -52 -2 -91 -12 -51
-23 -68 -56 -87 -20 -11 -23 -10 -31 10 -8 22 7 78 21 78 4 0 8 5 8 11 0 19
40 99 50 99 6 0 9 -3 9 -7z m301 -196 c0 -10 -54 -134 -65 -150 -14 -20 -15
-19 -30 60 -4 26 52 93 79 93 9 0 16 -1 16 -3z m-434 -361 c-1 -8 -16 -30 -33
-49 -51 -57 -57 -74 -58 -192 -2 -104 -4 -113 -35 -170 -18 -33 -38 -68 -45
-78 -13 -18 -14 -18 -25 3 -17 32 -15 67 8 145 12 39 23 97 25 130 3 45 11 71
32 103 15 23 31 42 35 42 10 0 31 50 25 60 -3 5 2 24 11 42 l17 32 22 -27 c13
-14 22 -33 21 -41z m199 -329 c-33 -58 -39 -62 -53 -32 -9 20 -7 32 15 70 25
46 26 46 45 28 18 -19 18 -20 -7 -66z m-360 -276 c-17 -45 -56 -176 -61 -211
-8 -45 -17 -65 -33 -77 -35 -27 -35 -25 -16 187 6 63 23 122 38 132 6 4 28 6
48 6 l38 0 -14 -37z"/>
<path d="M576 11428 c-3 -13 -6 -30 -8 -38 -6 -38 19 -77 98 -156 47 -47 82
-89 79 -94 -3 -5 -1 -11 4 -14 10 -6 34 -82 46 -141 13 -68 18 -161 18 -355 1
-218 -6 -343 -28 -510 -11 -85 -16 -115 -25 -165 -5 -27 -12 -68 -15 -89 -3
-21 -8 -48 -10 -60 -3 -12 -7 -37 -10 -56 -2 -19 -6 -46 -9 -60 -3 -14 -10
-50 -16 -80 -6 -30 -12 -66 -15 -80 -3 -14 -12 -65 -21 -115 -8 -49 -18 -97
-21 -105 -3 -8 -6 -28 -8 -45 -3 -29 -9 -63 -20 -112 -10 -45 -13 -59 -21
-103 -8 -47 -10 -55 -14 -67 -1 -5 -3 -12 -4 -18 -1 -5 -5 -23 -9 -40 -4 -16
-9 -39 -12 -50 -2 -11 -9 -40 -16 -65 -11 -47 -16 -69 -23 -97 -27 -117 -92
-337 -183 -618 -9 -27 -17 -52 -18 -55 -18 -67 -27 -98 -32 -110 -3 -8 -7 -19
-8 -25 -9 -40 -68 -202 -78 -214 -7 -8 -10 -16 -8 -18 1 -2 -2 -16 -7 -31 -6
-15 -24 -63 -40 -107 -16 -44 -33 -89 -37 -100 -4 -11 -10 -27 -12 -35 -4 -17
16 -89 29 -106 5 -7 11 -22 13 -34 8 -40 18 -65 41 -102 22 -34 26 -36 64 -31
23 3 40 2 40 -4 0 -6 11 -26 24 -45 18 -28 24 -50 25 -98 1 -79 6 -97 44 -139
30 -35 65 -103 72 -142 13 -68 50 -119 103 -145 50 -24 163 -64 182 -64 19 0
136 75 182 116 35 31 109 133 128 176 6 13 30 55 54 93 25 39 65 104 90 145
25 41 50 82 56 90 35 55 138 228 143 243 3 9 11 17 17 17 5 0 10 9 10 19 0 11
3 21 8 23 10 4 88 131 137 223 20 39 68 116 106 173 38 56 69 104 69 107 0 3
16 29 35 59 44 69 85 142 130 228 19 36 38 69 43 72 4 2 9 24 11 48 1 32 12
56 44 98 23 30 45 59 49 65 25 35 109 135 118 140 19 11 10 35 -15 41 -14 3
-25 8 -25 11 0 8 64 98 72 101 5 2 8 10 8 17 0 7 3 15 7 17 5 2 33 41 63 88
30 47 57 87 61 90 11 9 81 124 117 190 19 36 39 67 43 68 5 2 9 8 9 12 0 12
101 150 162 222 15 18 30 41 34 51 3 9 10 17 15 17 5 0 9 5 9 11 0 6 14 30 30
54 17 24 30 48 30 53 0 6 4 12 8 14 4 2 57 75 117 163 142 209 236 340 280
392 20 23 58 70 86 105 27 35 58 74 69 86 11 13 20 26 20 29 0 3 27 39 61 82
33 42 66 83 72 91 7 8 46 56 87 105 41 50 91 110 110 134 19 24 40 48 45 55
18 19 100 129 118 159 19 29 16 31 -33 29 -15 -1 -37 -15 -54 -34 -67 -76 -83
-96 -124 -147 -23 -29 -42 -58 -42 -63 0 -5 -5 -6 -10 -3 -5 3 -10 3 -10 -2 0
-4 -22 -33 -48 -64 -26 -31 -63 -75 -82 -99 -51 -64 -103 -113 -137 -131 -17
-9 -52 -49 -79 -89 -27 -39 -54 -77 -59 -84 -6 -6 -63 -81 -127 -166 -64 -85
-127 -167 -140 -182 -13 -15 -34 -42 -48 -60 -14 -18 -33 -40 -42 -50 -10 -10
-18 -20 -18 -23 0 -4 -8 -15 -52 -67 -10 -12 -18 -25 -18 -29 0 -4 -6 -14 -13
-21 -7 -7 -27 -36 -45 -64 -18 -28 -51 -69 -75 -91 -47 -44 -77 -79 -77 -91 0
-7 -30 -46 -63 -84 -9 -9 -13 -19 -10 -22 3 -3 -2 -8 -11 -12 -9 -3 -16 -11
-16 -18 0 -6 -9 -18 -19 -26 -11 -7 -18 -17 -15 -22 3 -4 1 -8 -5 -8 -5 0 -12
-8 -15 -18 -4 -10 -44 -61 -91 -113 -82 -90 -145 -181 -160 -231 -11 -33 -89
-135 -143 -186 -43 -41 -109 -84 -100 -65 21 44 33 63 40 63 4 0 8 5 8 11 0 6
20 41 43 78 44 66 80 123 165 256 24 39 53 82 63 97 11 15 19 31 19 37 0 5 6
11 13 14 9 3 9 7 0 17 -15 16 -41 -13 -125 -140 -35 -52 -66 -97 -69 -100 -3
-3 -8 -9 -10 -15 -2 -5 -39 -63 -82 -128 -42 -64 -77 -121 -77 -127 0 -5 -6
-13 -13 -17 -7 -4 -21 -25 -32 -45 -11 -21 -23 -38 -27 -38 -5 0 -8 -4 -8 -9
0 -5 -11 -26 -25 -48 -144 -223 -175 -269 -183 -278 -5 -6 -11 -15 -13 -21 -9
-21 -300 -451 -323 -476 -33 -36 -60 -28 -50 15 3 16 8 37 9 46 2 9 4 16 5 16
1 0 3 21 5 46 4 50 24 105 54 147 17 24 36 79 46 134 2 10 5 57 6 105 1 60 9
109 24 153 12 36 23 70 25 75 1 6 7 21 13 35 5 14 12 36 14 50 2 14 13 43 23
66 44 91 41 163 -9 213 l-21 21 36 15 c20 8 40 15 45 15 16 0 27 35 29 95 5
110 2 193 -8 212 -14 27 -4 42 33 49 33 6 41 16 50 63 2 9 4 16 5 16 3 0 7 38
13 110 3 33 11 85 17 115 30 155 32 377 4 635 -3 28 -7 73 -9 100 -2 28 -7 61
-10 75 -3 14 -8 44 -10 67 -3 23 -12 63 -21 90 -8 26 -17 65 -19 86 -3 20 -7
54 -10 75 -11 92 -44 162 -111 232 -74 78 -115 127 -142 173 -9 15 -27 30 -39
33 -13 4 -23 9 -23 13 0 4 -28 20 -62 36 -35 16 -84 41 -109 57 -70 43 -118
56 -223 62 -53 3 -104 9 -113 14 -10 5 -41 10 -70 11 -47 2 -53 0 -57 -21z"/>
<path d="M2395 9567 c-11 -14 -39 -45 -62 -70 -28 -30 -39 -48 -33 -58 5 -7
10 -11 12 -9 16 22 82 103 94 115 9 8 14 22 12 31 -2 12 -7 11 -23 -9z"/>
<path d="M11620 9571 c0 -4 -24 -33 -53 -64 -38 -39 -51 -60 -45 -69 6 -10 13
-7 27 12 11 14 38 45 60 70 44 49 49 60 26 60 -8 0 -15 -4 -15 -9z"/>
<path d="M5030 9510 c0 -6 -4 -10 -9 -10 -5 0 -25 -15 -44 -32 -19 -18 -42
-39 -52 -47 -14 -11 -14 -15 -3 -22 22 -14 26 -12 106 62 36 34 39 44 17 53
-8 3 -15 1 -15 -4z"/>
<path d="M9599 9489 c-19 -17 -47 -41 -63 -54 -27 -21 -29 -45 -3 -45 19 0
117 95 117 113 0 24 -12 21 -51 -14z"/>
<path d="M14229 9493 c-19 -15 -36 -31 -37 -36 -2 -4 -17 -14 -34 -23 -24 -12
-27 -18 -17 -30 16 -19 21 -18 57 14 17 15 43 37 57 49 19 17 24 27 17 39 -7
13 -13 12 -43 -13z"/>
<path d="M4683 9182 c-12 -15 -42 -49 -67 -76 -25 -27 -43 -52 -40 -57 7 -12
73 17 95 42 21 25 42 82 37 104 -2 11 -9 7 -25 -13z"/>
<path d="M9273 9173 c-18 -21 -50 -58 -73 -82 -22 -24 -39 -46 -37 -48 7 -7
71 18 89 34 25 23 49 68 55 105 2 15 3 28 1 28 -2 0 -18 -17 -35 -37z"/>
<path d="M13912 9188 c-11 -13 -43 -47 -71 -77 -27 -30 -48 -58 -45 -62 5 -9
65 10 79 25 27 29 38 49 50 91 8 25 12 45 11 45 -2 0 -13 -10 -24 -22z"/>
<path d="M9129 8982 c-8 -9 -40 -40 -70 -67 -30 -28 -64 -64 -76 -80 -13 -17
-30 -39 -38 -50 -9 -11 -37 -49 -63 -85 -26 -36 -50 -66 -54 -68 -5 -2 -8 -9
-8 -15 0 -7 -14 -27 -31 -45 -29 -31 -34 -62 -9 -62 5 0 30 28 55 63 25 34 52
71 61 82 9 11 28 38 42 60 31 47 112 135 123 135 5 0 26 18 47 40 27 28 39 50
40 75 3 39 3 40 -19 17z"/>
<path d="M4515 8963 c-66 -54 -99 -91 -182 -202 -47 -64 -105 -140 -127 -170
-42 -56 -52 -81 -33 -81 17 1 47 25 47 38 0 6 4 12 8 14 4 2 37 44 72 93 36
50 69 96 75 103 14 19 60 64 121 117 36 31 53 55 56 76 6 40 -1 42 -37 12z"/>
<path d="M13688 8917 c-42 -40 -102 -108 -134 -152 -32 -44 -60 -82 -63 -85
-4 -3 -18 -23 -33 -45 -14 -22 -36 -52 -49 -68 -27 -32 -33 -57 -14 -57 14 0
71 66 118 136 15 22 36 50 47 62 11 12 20 25 20 29 0 11 77 89 137 140 36 30
52 52 55 73 3 17 2 33 -2 35 -4 2 -41 -28 -82 -68z"/>
</g>
</svg>
